<mxfile host="app.diagrams.net" agent="Mozilla/5.0 (Windows NT 10.0; Win64; x64) AppleWebKit/537.36 (KHTML, like Gecko) Chrome/121.0.0.0 Safari/537.36 Edg/121.0.0.0" version="26.1.2">
  <diagram id="C5RBs43oDa-KdzZeNtuy" name="Page-1">
    <mxGraphModel dx="1426" dy="793" grid="1" gridSize="10" guides="1" tooltips="1" connect="1" arrows="1" fold="1" page="1" pageScale="1" pageWidth="827" pageHeight="1169" math="0" shadow="0">
      <root>
        <mxCell id="WIyWlLk6GJQsqaUBKTNV-0" />
        <mxCell id="WIyWlLk6GJQsqaUBKTNV-1" parent="WIyWlLk6GJQsqaUBKTNV-0" />
        <mxCell id="AfqAmTp_dEWSscZW_7_J-23" value="" style="edgeStyle=orthogonalEdgeStyle;rounded=0;orthogonalLoop=1;jettySize=auto;html=1;entryX=0.5;entryY=0;entryDx=0;entryDy=0;" edge="1" parent="WIyWlLk6GJQsqaUBKTNV-1" source="AfqAmTp_dEWSscZW_7_J-24" target="AfqAmTp_dEWSscZW_7_J-27">
          <mxGeometry relative="1" as="geometry">
            <mxPoint x="463" y="115" as="targetPoint" />
          </mxGeometry>
        </mxCell>
        <mxCell id="AfqAmTp_dEWSscZW_7_J-24" value="开始" style="strokeWidth=2;html=1;shape=mxgraph.flowchart.terminator;whiteSpace=wrap;" vertex="1" parent="WIyWlLk6GJQsqaUBKTNV-1">
          <mxGeometry x="433" y="40" width="60" height="40" as="geometry" />
        </mxCell>
        <mxCell id="AfqAmTp_dEWSscZW_7_J-25" value="结束" style="strokeWidth=2;html=1;shape=mxgraph.flowchart.terminator;whiteSpace=wrap;" vertex="1" parent="WIyWlLk6GJQsqaUBKTNV-1">
          <mxGeometry x="422.37" y="800" width="80" height="43.5" as="geometry" />
        </mxCell>
        <mxCell id="AfqAmTp_dEWSscZW_7_J-26" value="" style="edgeStyle=orthogonalEdgeStyle;rounded=0;orthogonalLoop=1;jettySize=auto;html=1;" edge="1" parent="WIyWlLk6GJQsqaUBKTNV-1" source="AfqAmTp_dEWSscZW_7_J-27" target="AfqAmTp_dEWSscZW_7_J-31">
          <mxGeometry relative="1" as="geometry" />
        </mxCell>
        <mxCell id="AfqAmTp_dEWSscZW_7_J-27" value="&lt;div data-docx-has-block-data=&quot;false&quot; data-lark-html-role=&quot;root&quot; data-page-id=&quot;Aed7douATo9B6cx0R7Rc3emsnXd&quot;&gt;&lt;div class=&quot;ace-line ace-line old-record-id-Ok8HdJDNqog325xrWxfceNuunWh&quot;&gt;&amp;nbsp;&amp;nbsp;&lt;span style=&quot;background-color: transparent;&quot;&gt;&amp;nbsp;&lt;/span&gt;&lt;span style=&quot;background-color: transparent;&quot;&gt;&amp;nbsp;&amp;nbsp;先根据【债券简称】匹配bond_issue.tap_issue_bond_short_name&lt;/span&gt;&lt;/div&gt;&lt;div data-docx-has-block-data=&quot;false&quot; data-lark-html-role=&quot;root&quot; data-page-id=&quot;Aed7douATo9B6cx0R7Rc3emsnXd&quot;&gt;&lt;div class=&quot;ace-line ace-line old-record-id-Kt79dHR3eowKQuxNdNvcqAw7noc&quot;&gt;&amp;nbsp;&amp;nbsp;如果匹配不上根据债券编码匹配bond_issue.tap_issue_bond_code&lt;/div&gt;&lt;/div&gt;&lt;span class=&quot;lark-record-clipboard&quot; data-lark-record-format=&quot;docx/record&quot; data-lark-record-data=&quot;{&amp;quot;isCut&amp;quot;:false,&amp;quot;rootId&amp;quot;:&amp;quot;Aed7douATo9B6cx0R7Rc3emsnXd&amp;quot;,&amp;quot;parentId&amp;quot;:&amp;quot;JEQ5d4mMjoHGSQxeDWHcfmAvnCd&amp;quot;,&amp;quot;blockIds&amp;quot;:[1353,1352],&amp;quot;recordIds&amp;quot;:[&amp;quot;U08rdGAKxoSMuexzvoscVGpGnAf&amp;quot;,&amp;quot;Kt79dHR3eowKQuxNdNvcqAw7noc&amp;quot;],&amp;quot;recordMap&amp;quot;:{&amp;quot;Kt79dHR3eowKQuxNdNvcqAw7noc&amp;quot;:{&amp;quot;id&amp;quot;:&amp;quot;Kt79dHR3eowKQuxNdNvcqAw7noc&amp;quot;,&amp;quot;snapshot&amp;quot;:{&amp;quot;type&amp;quot;:&amp;quot;text&amp;quot;,&amp;quot;children&amp;quot;:[],&amp;quot;comments&amp;quot;:[],&amp;quot;revisions&amp;quot;:[],&amp;quot;author&amp;quot;:&amp;quot;7403194829083705347&amp;quot;,&amp;quot;text&amp;quot;:{&amp;quot;initialAttributedTexts&amp;quot;:{&amp;quot;text&amp;quot;:{&amp;quot;0&amp;quot;:&amp;quot;如果匹配不上根据债券编码匹配bond_issue.tap_issue_bond_code&amp;quot;},&amp;quot;attribs&amp;quot;:{&amp;quot;0&amp;quot;:&amp;quot;*0+18&amp;quot;}},&amp;quot;apool&amp;quot;:{&amp;quot;numToAttrib&amp;quot;:{&amp;quot;0&amp;quot;:[&amp;quot;author&amp;quot;,&amp;quot;7403194829083705347&amp;quot;]},&amp;quot;nextNum&amp;quot;:1}},&amp;quot;folded&amp;quot;:false,&amp;quot;parent_id&amp;quot;:&amp;quot;JEQ5d4mMjoHGSQxeDWHcfmAvnCd&amp;quot;}},&amp;quot;U08rdGAKxoSMuexzvoscVGpGnAf&amp;quot;:{&amp;quot;id&amp;quot;:&amp;quot;U08rdGAKxoSMuexzvoscVGpGnAf&amp;quot;,&amp;quot;snapshot&amp;quot;:{&amp;quot;type&amp;quot;:&amp;quot;text&amp;quot;,&amp;quot;children&amp;quot;:[],&amp;quot;comments&amp;quot;:[],&amp;quot;revisions&amp;quot;:[],&amp;quot;author&amp;quot;:&amp;quot;7403194829083705347&amp;quot;,&amp;quot;text&amp;quot;:{&amp;quot;initialAttributedTexts&amp;quot;:{&amp;quot;text&amp;quot;:{&amp;quot;0&amp;quot;:&amp;quot;先根据【债券简称】匹配bond_issue.tap_issue_bond_short_name&amp;quot;},&amp;quot;attribs&amp;quot;:{&amp;quot;0&amp;quot;:&amp;quot;*0+1b&amp;quot;}},&amp;quot;apool&amp;quot;:{&amp;quot;numToAttrib&amp;quot;:{&amp;quot;0&amp;quot;:[&amp;quot;author&amp;quot;,&amp;quot;7403194829083705347&amp;quot;]},&amp;quot;nextNum&amp;quot;:1}},&amp;quot;folded&amp;quot;:false,&amp;quot;parent_id&amp;quot;:&amp;quot;JEQ5d4mMjoHGSQxeDWHcfmAvnCd&amp;quot;}},&amp;quot;JEQ5d4mMjoHGSQxeDWHcfmAvnCd&amp;quot;:{&amp;quot;id&amp;quot;:&amp;quot;JEQ5d4mMjoHGSQxeDWHcfmAvnCd&amp;quot;,&amp;quot;snapshot&amp;quot;:{&amp;quot;parent_id&amp;quot;:&amp;quot;Hi3hdM5T4oeO9gxYRoicHyLxnah&amp;quot;,&amp;quot;type&amp;quot;:&amp;quot;text&amp;quot;,&amp;quot;children&amp;quot;:[&amp;quot;U08rdGAKxoSMuexzvoscVGpGnAf&amp;quot;,&amp;quot;Kt79dHR3eowKQuxNdNvcqAw7noc&amp;quot;,&amp;quot;ZsHDd9LdooWWXaxFcL9crzN1nHd&amp;quot;,&amp;quot;AXocdKiCYoi4V9xqvpycnei4nxh&amp;quot;,&amp;quot;GDb6dUGugoDASMxqy6BcYY2cnnb&amp;quot;,&amp;quot;Bho7dJFbkosNQtxzd28cFyxEnHd&amp;quot;,&amp;quot;S9zSd3iQXoVROPxlALscG52xnHh&amp;quot;,&amp;quot;RENxdaBcuowcmcxREuccUH3Bnic&amp;quot;,&amp;quot;GMsvdkVEaoCKFxxazCrcTmlen0g&amp;quot;],&amp;quot;comments&amp;quot;:[],&amp;quot;revisions&amp;quot;:[],&amp;quot;author&amp;quot;:&amp;quot;7403194829083705347&amp;quot;,&amp;quot;text&amp;quot;:{&amp;quot;initialAttributedTexts&amp;quot;:{&amp;quot;text&amp;quot;:{&amp;quot;0&amp;quot;:&amp;quot;6,增发、续发债匹配流程&amp;quot;},&amp;quot;attribs&amp;quot;:{&amp;quot;0&amp;quot;:&amp;quot;*0+c&amp;quot;},&amp;quot;rows&amp;quot;:{},&amp;quot;cols&amp;quot;:{}},&amp;quot;apool&amp;quot;:{&amp;quot;numToAttrib&amp;quot;:{&amp;quot;0&amp;quot;:[&amp;quot;author&amp;quot;,&amp;quot;7403194829083705347&amp;quot;]},&amp;quot;nextNum&amp;quot;:1,&amp;quot;attribToNum&amp;quot;:{&amp;quot;author,7403194829083705347&amp;quot;:0}}},&amp;quot;folded&amp;quot;:false}}},&amp;quot;payloadMap&amp;quot;:{&amp;quot;U08rdGAKxoSMuexzvoscVGpGnAf&amp;quot;:{&amp;quot;level&amp;quot;:2},&amp;quot;Kt79dHR3eowKQuxNdNvcqAw7noc&amp;quot;:{&amp;quot;level&amp;quot;:2}},&amp;quot;extra&amp;quot;:{&amp;quot;channel&amp;quot;:&amp;quot;saas&amp;quot;,&amp;quot;pasteRandomId&amp;quot;:&amp;quot;5969b440-827c-40fd-b8a1-fabd97f1afb3&amp;quot;,&amp;quot;mention_page_title&amp;quot;:{},&amp;quot;external_mention_url&amp;quot;:{},&amp;quot;isEqualBlockSelection&amp;quot;:true},&amp;quot;isKeepQuoteContainer&amp;quot;:true,&amp;quot;selection&amp;quot;:[{&amp;quot;id&amp;quot;:1353,&amp;quot;type&amp;quot;:&amp;quot;text&amp;quot;,&amp;quot;selection&amp;quot;:{&amp;quot;start&amp;quot;:0,&amp;quot;end&amp;quot;:47},&amp;quot;recordId&amp;quot;:&amp;quot;U08rdGAKxoSMuexzvoscVGpGnAf&amp;quot;},{&amp;quot;id&amp;quot;:1352,&amp;quot;type&amp;quot;:&amp;quot;text&amp;quot;,&amp;quot;selection&amp;quot;:{&amp;quot;start&amp;quot;:0,&amp;quot;end&amp;quot;:44},&amp;quot;recordId&amp;quot;:&amp;quot;Kt79dHR3eowKQuxNdNvcqAw7noc&amp;quot;}],&amp;quot;pasteFlag&amp;quot;:&amp;quot;4bad5c61-66b6-4113-867a-fe3f38da0dbc&amp;quot;}&quot;&gt;&lt;/span&gt;&lt;div class=&quot;ace-line ace-line old-record-id-U170dsWV5ouliXx36R1cMYBwnjh&quot;&gt;&amp;nbsp; 匹配时：如果债券编码不包含交易市场信息,在债券编码后拼接上交易市场&lt;/div&gt;&lt;div class=&quot;ace-line ace-line old-record-id-OApXdDIfzolyv1xDMULcFpecnWa&quot;&gt;&amp;nbsp;&amp;nbsp; 拼接顺序:  .IB&amp;gt;.SH&amp;gt;.SZ&amp;gt;.BJ&lt;br&gt;&lt;/div&gt;&lt;/div&gt;&lt;span class=&quot;lark-record-clipboard&quot; data-lark-record-format=&quot;docx/record&quot; data-lark-record-data=&quot;{&amp;quot;isCut&amp;quot;:false,&amp;quot;rootId&amp;quot;:&amp;quot;Aed7douATo9B6cx0R7Rc3emsnXd&amp;quot;,&amp;quot;parentId&amp;quot;:&amp;quot;PbEFdPpbyoQQVMx5GCNcPsgcnbX&amp;quot;,&amp;quot;blockIds&amp;quot;:[1329,1330,1326],&amp;quot;recordIds&amp;quot;:[&amp;quot;Ok8HdJDNqog325xrWxfceNuunWh&amp;quot;,&amp;quot;U170dsWV5ouliXx36R1cMYBwnjh&amp;quot;,&amp;quot;OApXdDIfzolyv1xDMULcFpecnWa&amp;quot;],&amp;quot;recordMap&amp;quot;:{&amp;quot;OApXdDIfzolyv1xDMULcFpecnWa&amp;quot;:{&amp;quot;id&amp;quot;:&amp;quot;OApXdDIfzolyv1xDMULcFpecnWa&amp;quot;,&amp;quot;snapshot&amp;quot;:{&amp;quot;parent_id&amp;quot;:&amp;quot;PbEFdPpbyoQQVMx5GCNcPsgcnbX&amp;quot;,&amp;quot;type&amp;quot;:&amp;quot;text&amp;quot;,&amp;quot;children&amp;quot;:[],&amp;quot;comments&amp;quot;:[],&amp;quot;revisions&amp;quot;:[],&amp;quot;author&amp;quot;:&amp;quot;7403194829083705347&amp;quot;,&amp;quot;text&amp;quot;:{&amp;quot;initialAttributedTexts&amp;quot;:{&amp;quot;text&amp;quot;:{&amp;quot;0&amp;quot;:&amp;quot; 拼接顺序:  .IB&gt;.SH&gt;.SZ&gt;.BJ &amp;quot;},&amp;quot;attribs&amp;quot;:{&amp;quot;0&amp;quot;:&amp;quot;*0+o&amp;quot;}},&amp;quot;apool&amp;quot;:{&amp;quot;numToAttrib&amp;quot;:{&amp;quot;0&amp;quot;:[&amp;quot;author&amp;quot;,&amp;quot;7403194829083705347&amp;quot;]},&amp;quot;nextNum&amp;quot;:1}},&amp;quot;folded&amp;quot;:false,&amp;quot;text_indent&amp;quot;:0}},&amp;quot;Ok8HdJDNqog325xrWxfceNuunWh&amp;quot;:{&amp;quot;id&amp;quot;:&amp;quot;Ok8HdJDNqog325xrWxfceNuunWh&amp;quot;,&amp;quot;snapshot&amp;quot;:{&amp;quot;parent_id&amp;quot;:&amp;quot;PbEFdPpbyoQQVMx5GCNcPsgcnbX&amp;quot;,&amp;quot;type&amp;quot;:&amp;quot;text&amp;quot;,&amp;quot;children&amp;quot;:[],&amp;quot;comments&amp;quot;:[],&amp;quot;revisions&amp;quot;:[],&amp;quot;author&amp;quot;:&amp;quot;7403194829083705347&amp;quot;,&amp;quot;text&amp;quot;:{&amp;quot;initialAttributedTexts&amp;quot;:{&amp;quot;text&amp;quot;:{&amp;quot;0&amp;quot;:&amp;quot;如果匹配不上根据债券编码匹配main_security.security_code&amp;quot;},&amp;quot;attribs&amp;quot;:{&amp;quot;0&amp;quot;:&amp;quot;*0+15&amp;quot;}},&amp;quot;apool&amp;quot;:{&amp;quot;numToAttrib&amp;quot;:{&amp;quot;0&amp;quot;:[&amp;quot;author&amp;quot;,&amp;quot;7403194829083705347&amp;quot;]},&amp;quot;nextNum&amp;quot;:1}},&amp;quot;folded&amp;quot;:false}},&amp;quot;U170dsWV5ouliXx36R1cMYBwnjh&amp;quot;:{&amp;quot;id&amp;quot;:&amp;quot;U170dsWV5ouliXx36R1cMYBwnjh&amp;quot;,&amp;quot;snapshot&amp;quot;:{&amp;quot;parent_id&amp;quot;:&amp;quot;PbEFdPpbyoQQVMx5GCNcPsgcnbX&amp;quot;,&amp;quot;type&amp;quot;:&amp;quot;text&amp;quot;,&amp;quot;children&amp;quot;:[],&amp;quot;comments&amp;quot;:[],&amp;quot;revisions&amp;quot;:[],&amp;quot;author&amp;quot;:&amp;quot;7403194829083705347&amp;quot;,&amp;quot;text&amp;quot;:{&amp;quot;initialAttributedTexts&amp;quot;:{&amp;quot;text&amp;quot;:{&amp;quot;0&amp;quot;:&amp;quot;匹配时：如果债券编码不包含交易市场信息,在债券编码后拼接上交易市场&amp;quot;},&amp;quot;attribs&amp;quot;:{&amp;quot;0&amp;quot;:&amp;quot;*0+x&amp;quot;},&amp;quot;rows&amp;quot;:{},&amp;quot;cols&amp;quot;:{}},&amp;quot;apool&amp;quot;:{&amp;quot;numToAttrib&amp;quot;:{&amp;quot;0&amp;quot;:[&amp;quot;author&amp;quot;,&amp;quot;7403194829083705347&amp;quot;]},&amp;quot;nextNum&amp;quot;:1,&amp;quot;attribToNum&amp;quot;:{&amp;quot;author,7403194829083705347&amp;quot;:0}}},&amp;quot;folded&amp;quot;:false}},&amp;quot;PbEFdPpbyoQQVMx5GCNcPsgcnbX&amp;quot;:{&amp;quot;id&amp;quot;:&amp;quot;PbEFdPpbyoQQVMx5GCNcPsgcnbX&amp;quot;,&amp;quot;snapshot&amp;quot;:{&amp;quot;parent_id&amp;quot;:&amp;quot;Hi3hdM5T4oeO9gxYRoicHyLxnah&amp;quot;,&amp;quot;type&amp;quot;:&amp;quot;text&amp;quot;,&amp;quot;children&amp;quot;:[&amp;quot;Cyj0dWNAPomNcLx2lZZcVyJznbf&amp;quot;,&amp;quot;Ok8HdJDNqog325xrWxfceNuunWh&amp;quot;,&amp;quot;U170dsWV5ouliXx36R1cMYBwnjh&amp;quot;,&amp;quot;OApXdDIfzolyv1xDMULcFpecnWa&amp;quot;,&amp;quot;Bc1adQ8gnov3t8x5avEchllJn0d&amp;quot;,&amp;quot;NgIIdmxvpoQHESxAfVdc74RMnrY&amp;quot;],&amp;quot;comments&amp;quot;:[],&amp;quot;revisions&amp;quot;:[],&amp;quot;author&amp;quot;:&amp;quot;7403194829083705347&amp;quot;,&amp;quot;text&amp;quot;:{&amp;quot;apool&amp;quot;:{&amp;quot;numToAttrib&amp;quot;:{&amp;quot;0&amp;quot;:[&amp;quot;author&amp;quot;,&amp;quot;7403194829083705347&amp;quot;]},&amp;quot;nextNum&amp;quot;:1,&amp;quot;attribToNum&amp;quot;:{&amp;quot;author,7403194829083705347&amp;quot;:0}},&amp;quot;initialAttributedTexts&amp;quot;:{&amp;quot;text&amp;quot;:{&amp;quot;0&amp;quot;:&amp;quot;5,新发债匹配流程&amp;quot;},&amp;quot;attribs&amp;quot;:{&amp;quot;0&amp;quot;:&amp;quot;*0+9&amp;quot;},&amp;quot;rows&amp;quot;:{},&amp;quot;cols&amp;quot;:{}}},&amp;quot;folded&amp;quot;:false}}},&amp;quot;payloadMap&amp;quot;:{&amp;quot;Ok8HdJDNqog325xrWxfceNuunWh&amp;quot;:{&amp;quot;level&amp;quot;:2},&amp;quot;U170dsWV5ouliXx36R1cMYBwnjh&amp;quot;:{&amp;quot;level&amp;quot;:2},&amp;quot;OApXdDIfzolyv1xDMULcFpecnWa&amp;quot;:{&amp;quot;level&amp;quot;:2}},&amp;quot;extra&amp;quot;:{&amp;quot;channel&amp;quot;:&amp;quot;saas&amp;quot;,&amp;quot;pasteRandomId&amp;quot;:&amp;quot;46fb7dec-91c3-465f-9ec3-caed69e196a9&amp;quot;,&amp;quot;mention_page_title&amp;quot;:{},&amp;quot;external_mention_url&amp;quot;:{},&amp;quot;isEqualBlockSelection&amp;quot;:true},&amp;quot;isKeepQuoteContainer&amp;quot;:true,&amp;quot;selection&amp;quot;:[{&amp;quot;id&amp;quot;:1329,&amp;quot;type&amp;quot;:&amp;quot;text&amp;quot;,&amp;quot;selection&amp;quot;:{&amp;quot;start&amp;quot;:0,&amp;quot;end&amp;quot;:41},&amp;quot;recordId&amp;quot;:&amp;quot;Ok8HdJDNqog325xrWxfceNuunWh&amp;quot;},{&amp;quot;id&amp;quot;:1330,&amp;quot;type&amp;quot;:&amp;quot;text&amp;quot;,&amp;quot;selection&amp;quot;:{&amp;quot;start&amp;quot;:0,&amp;quot;end&amp;quot;:33},&amp;quot;recordId&amp;quot;:&amp;quot;U170dsWV5ouliXx36R1cMYBwnjh&amp;quot;},{&amp;quot;id&amp;quot;:1326,&amp;quot;type&amp;quot;:&amp;quot;text&amp;quot;,&amp;quot;selection&amp;quot;:{&amp;quot;start&amp;quot;:0,&amp;quot;end&amp;quot;:24},&amp;quot;recordId&amp;quot;:&amp;quot;OApXdDIfzolyv1xDMULcFpecnWa&amp;quot;}],&amp;quot;pasteFlag&amp;quot;:&amp;quot;4bad5c61-66b6-4113-867a-fe3f38da0dbc&amp;quot;}&quot;&gt;&lt;/span&gt;" style="whiteSpace=wrap;html=1;shadow=0;strokeWidth=1;spacing=6;spacingTop=-4;" vertex="1" parent="WIyWlLk6GJQsqaUBKTNV-1">
          <mxGeometry x="338.02" y="100" width="250" height="130" as="geometry" />
        </mxCell>
        <mxCell id="AfqAmTp_dEWSscZW_7_J-28" value="" style="edgeStyle=orthogonalEdgeStyle;rounded=0;orthogonalLoop=1;jettySize=auto;html=1;" edge="1" parent="WIyWlLk6GJQsqaUBKTNV-1">
          <mxGeometry relative="1" as="geometry">
            <mxPoint x="420" y="820" as="targetPoint" />
            <Array as="points">
              <mxPoint x="290" y="280" />
              <mxPoint x="290" y="820" />
            </Array>
            <mxPoint x="410" y="280" as="sourcePoint" />
          </mxGeometry>
        </mxCell>
        <mxCell id="AfqAmTp_dEWSscZW_7_J-29" value="失败" style="edgeLabel;html=1;align=center;verticalAlign=middle;resizable=0;points=[];" vertex="1" connectable="0" parent="AfqAmTp_dEWSscZW_7_J-28">
          <mxGeometry x="-0.1915" y="-1" relative="1" as="geometry">
            <mxPoint as="offset" />
          </mxGeometry>
        </mxCell>
        <mxCell id="AfqAmTp_dEWSscZW_7_J-30" value="成功" style="edgeStyle=orthogonalEdgeStyle;rounded=0;orthogonalLoop=1;jettySize=auto;html=1;" edge="1" parent="WIyWlLk6GJQsqaUBKTNV-1" source="AfqAmTp_dEWSscZW_7_J-31" target="AfqAmTp_dEWSscZW_7_J-51">
          <mxGeometry relative="1" as="geometry" />
        </mxCell>
        <mxCell id="AfqAmTp_dEWSscZW_7_J-31" value="是否匹配成功" style="rhombus;whiteSpace=wrap;html=1;shadow=0;strokeWidth=1;spacing=6;spacingTop=-4;" vertex="1" parent="WIyWlLk6GJQsqaUBKTNV-1">
          <mxGeometry x="412.37" y="260" width="100" height="40" as="geometry" />
        </mxCell>
        <mxCell id="AfqAmTp_dEWSscZW_7_J-32" value="" style="edgeStyle=orthogonalEdgeStyle;rounded=0;orthogonalLoop=1;jettySize=auto;html=1;" edge="1" parent="WIyWlLk6GJQsqaUBKTNV-1" source="AfqAmTp_dEWSscZW_7_J-33" target="AfqAmTp_dEWSscZW_7_J-35">
          <mxGeometry relative="1" as="geometry" />
        </mxCell>
        <mxCell id="AfqAmTp_dEWSscZW_7_J-33" value="&lt;div data-docx-has-block-data=&quot;false&quot; data-lark-html-role=&quot;root&quot; data-page-id=&quot;Aed7douATo9B6cx0R7Rc3emsnXd&quot;&gt;&lt;div class=&quot;old-record-id-Y06CdZKERo4gitxMXKTcp8nAnag&quot;&gt;&lt;div data-docx-has-block-data=&quot;false&quot; data-lark-html-role=&quot;root&quot; data-page-id=&quot;Aed7douATo9B6cx0R7Rc3emsnXd&quot;&gt;&lt;div class=&quot;ace-line ace-line old-record-id-EkkwdGNRFoHdskx1CNfcKlZGnvd&quot;&gt;&lt;font&gt;票面利率取值规则： 取bond_basic.issue_coupon&lt;/font&gt;&lt;br&gt;&lt;/div&gt;&lt;/div&gt;&lt;span class=&quot;lark-record-clipboard&quot; data-lark-record-format=&quot;docx/text&quot; data-lark-record-data=&quot;{&amp;quot;rootId&amp;quot;:&amp;quot;Aed7douATo9B6cx0R7Rc3emsnXd&amp;quot;,&amp;quot;text&amp;quot;:{&amp;quot;initialAttributedTexts&amp;quot;:{&amp;quot;text&amp;quot;:{&amp;quot;0&amp;quot;:&amp;quot;票面利率回显取值规则: 优先取bond_basic.issue_coupon&gt;加权利率&gt;边际利率.&amp;quot;},&amp;quot;attribs&amp;quot;:{&amp;quot;0&amp;quot;:&amp;quot;*0+1d&amp;quot;}},&amp;quot;apool&amp;quot;:{&amp;quot;numToAttrib&amp;quot;:{&amp;quot;0&amp;quot;:[&amp;quot;author&amp;quot;,&amp;quot;7403194829083705347&amp;quot;]},&amp;quot;nextNum&amp;quot;:1}},&amp;quot;type&amp;quot;:&amp;quot;text&amp;quot;,&amp;quot;referenceRecordMap&amp;quot;:{},&amp;quot;extra&amp;quot;:{&amp;quot;channel&amp;quot;:&amp;quot;saas&amp;quot;,&amp;quot;isEqualBlockSelection&amp;quot;:true,&amp;quot;pasteRandomId&amp;quot;:&amp;quot;08c52dbc-1a5c-4764-9aa0-1e53c55c0288&amp;quot;,&amp;quot;mention_page_title&amp;quot;:{},&amp;quot;external_mention_url&amp;quot;:{}},&amp;quot;isKeepQuoteContainer&amp;quot;:true,&amp;quot;isFromCode&amp;quot;:false,&amp;quot;selection&amp;quot;:[{&amp;quot;id&amp;quot;:1354,&amp;quot;type&amp;quot;:&amp;quot;text&amp;quot;,&amp;quot;selection&amp;quot;:{&amp;quot;start&amp;quot;:0,&amp;quot;end&amp;quot;:49},&amp;quot;recordId&amp;quot;:&amp;quot;EkkwdGNRFoHdskx1CNfcKlZGnvd&amp;quot;}],&amp;quot;payloadMap&amp;quot;:{},&amp;quot;isCut&amp;quot;:false}&quot;&gt;&lt;/span&gt;&lt;/div&gt;&lt;/div&gt;&lt;span class=&quot;lark-record-clipboard&quot; data-lark-record-format=&quot;docx/text&quot; data-lark-record-data=&quot;{&amp;quot;rootId&amp;quot;:&amp;quot;Aed7douATo9B6cx0R7Rc3emsnXd&amp;quot;,&amp;quot;text&amp;quot;:{&amp;quot;initialAttributedTexts&amp;quot;:{&amp;quot;text&amp;quot;:{&amp;quot;0&amp;quot;:&amp;quot;票面利率取值规则：优先取加权利率，没有值再取边际利率&amp;quot;},&amp;quot;attribs&amp;quot;:{&amp;quot;0&amp;quot;:&amp;quot;*0+q&amp;quot;}},&amp;quot;apool&amp;quot;:{&amp;quot;numToAttrib&amp;quot;:{&amp;quot;0&amp;quot;:[&amp;quot;author&amp;quot;,&amp;quot;7403194829083705347&amp;quot;]},&amp;quot;nextNum&amp;quot;:1}},&amp;quot;type&amp;quot;:&amp;quot;text&amp;quot;,&amp;quot;referenceRecordMap&amp;quot;:{},&amp;quot;extra&amp;quot;:{&amp;quot;channel&amp;quot;:&amp;quot;saas&amp;quot;,&amp;quot;isEqualBlockSelection&amp;quot;:false,&amp;quot;pasteRandomId&amp;quot;:&amp;quot;f53fae7a-b66b-4820-86e4-39ea425e8903&amp;quot;,&amp;quot;mention_page_title&amp;quot;:{},&amp;quot;external_mention_url&amp;quot;:{}},&amp;quot;isKeepQuoteContainer&amp;quot;:false,&amp;quot;isFromCode&amp;quot;:false,&amp;quot;selection&amp;quot;:[{&amp;quot;id&amp;quot;:1334,&amp;quot;type&amp;quot;:&amp;quot;text&amp;quot;,&amp;quot;selection&amp;quot;:{&amp;quot;start&amp;quot;:0,&amp;quot;end&amp;quot;:26},&amp;quot;recordId&amp;quot;:&amp;quot;Y06CdZKERo4gitxMXKTcp8nAnag&amp;quot;}],&amp;quot;payloadMap&amp;quot;:{},&amp;quot;isCut&amp;quot;:false}&quot;&gt;&lt;/span&gt;" style="whiteSpace=wrap;html=1;shadow=0;strokeWidth=1;spacing=6;spacingTop=-4;" vertex="1" parent="WIyWlLk6GJQsqaUBKTNV-1">
          <mxGeometry x="372.75" y="450" width="180.49" height="49" as="geometry" />
        </mxCell>
        <mxCell id="AfqAmTp_dEWSscZW_7_J-34" value="" style="edgeStyle=orthogonalEdgeStyle;rounded=0;orthogonalLoop=1;jettySize=auto;html=1;" edge="1" parent="WIyWlLk6GJQsqaUBKTNV-1" source="AfqAmTp_dEWSscZW_7_J-35" target="AfqAmTp_dEWSscZW_7_J-37">
          <mxGeometry relative="1" as="geometry" />
        </mxCell>
        <mxCell id="AfqAmTp_dEWSscZW_7_J-35" value="&lt;div data-docx-has-block-data=&quot;false&quot; data-lark-html-role=&quot;root&quot; data-page-id=&quot;Aed7douATo9B6cx0R7Rc3emsnXd&quot;&gt;&lt;div class=&quot;ace-line ace-line old-record-id-IPHzd5iJQo4ANGxoBNIcWaeeneb&quot;&gt;&amp;nbsp; 混合式同时有加权利率和边际利率，其它三种格式只有一个利率 映射到表的边际利率，边际倍数、全场倍数对应赋值&lt;/div&gt;&lt;/div&gt;&lt;span class=&quot;lark-record-clipboard&quot; data-lark-record-format=&quot;docx/text&quot; data-lark-record-data=&quot;{&amp;quot;rootId&amp;quot;:&amp;quot;Aed7douATo9B6cx0R7Rc3emsnXd&amp;quot;,&amp;quot;text&amp;quot;:{&amp;quot;initialAttributedTexts&amp;quot;:{&amp;quot;text&amp;quot;:{&amp;quot;0&amp;quot;:&amp;quot;只有混合式同时有加权利率和边际利率，其它三种格式只有一个利率 映射到表的边际利率&amp;quot;},&amp;quot;attribs&amp;quot;:{&amp;quot;0&amp;quot;:&amp;quot;*0+14&amp;quot;}},&amp;quot;apool&amp;quot;:{&amp;quot;numToAttrib&amp;quot;:{&amp;quot;0&amp;quot;:[&amp;quot;author&amp;quot;,&amp;quot;7403194829083705347&amp;quot;]},&amp;quot;nextNum&amp;quot;:1}},&amp;quot;type&amp;quot;:&amp;quot;text&amp;quot;,&amp;quot;referenceRecordMap&amp;quot;:{},&amp;quot;extra&amp;quot;:{&amp;quot;channel&amp;quot;:&amp;quot;saas&amp;quot;,&amp;quot;isEqualBlockSelection&amp;quot;:true,&amp;quot;pasteRandomId&amp;quot;:&amp;quot;f9e04e7d-997b-4b29-a2a9-bf7771be949f&amp;quot;,&amp;quot;mention_page_title&amp;quot;:{},&amp;quot;external_mention_url&amp;quot;:{}},&amp;quot;isKeepQuoteContainer&amp;quot;:true,&amp;quot;isFromCode&amp;quot;:false,&amp;quot;selection&amp;quot;:[{&amp;quot;id&amp;quot;:1333,&amp;quot;type&amp;quot;:&amp;quot;text&amp;quot;,&amp;quot;selection&amp;quot;:{&amp;quot;start&amp;quot;:0,&amp;quot;end&amp;quot;:40},&amp;quot;recordId&amp;quot;:&amp;quot;IPHzd5iJQo4ANGxoBNIcWaeeneb&amp;quot;}],&amp;quot;payloadMap&amp;quot;:{},&amp;quot;isCut&amp;quot;:false}&quot;&gt;&lt;/span&gt;" style="whiteSpace=wrap;html=1;shadow=0;strokeWidth=1;spacing=6;spacingTop=-4;" vertex="1" parent="WIyWlLk6GJQsqaUBKTNV-1">
          <mxGeometry x="378" y="528" width="170" height="60" as="geometry" />
        </mxCell>
        <mxCell id="AfqAmTp_dEWSscZW_7_J-55" value="" style="edgeStyle=orthogonalEdgeStyle;rounded=0;orthogonalLoop=1;jettySize=auto;html=1;" edge="1" parent="WIyWlLk6GJQsqaUBKTNV-1" source="AfqAmTp_dEWSscZW_7_J-37" target="AfqAmTp_dEWSscZW_7_J-25">
          <mxGeometry relative="1" as="geometry" />
        </mxCell>
        <mxCell id="AfqAmTp_dEWSscZW_7_J-37" value="&lt;div&gt;&lt;br&gt;&lt;/div&gt;&lt;div&gt;有值才更新表 bond_issue 的边际利率、加权利率，边际倍数、全场倍数&lt;/div&gt;&lt;div&gt;&lt;div data-docx-has-block-data=&quot;false&quot; data-lark-html-role=&quot;root&quot; data-page-id=&quot;XH2gdg83foNSaAxpFszcy5PFngg&quot;&gt;&lt;div class=&quot;ace-line ace-line old-record-id-JiKndklktoS3tnxEeXJc0E0Fnsc&quot;&gt;bond_issue.tap_issue_bond_code/&lt;br&gt;bond_issue.tap_issue_bond_short_name确认唯一&lt;/div&gt;&lt;/div&gt;&lt;span class=&quot;lark-record-clipboard&quot; data-lark-record-format=&quot;docx/text&quot; data-lark-record-data=&quot;{&amp;quot;rootId&amp;quot;:&amp;quot;XH2gdg83foNSaAxpFszcy5PFngg&amp;quot;,&amp;quot;text&amp;quot;:{&amp;quot;initialAttributedTexts&amp;quot;:{&amp;quot;text&amp;quot;:{&amp;quot;0&amp;quot;:&amp;quot;bond_issue.tap_issue_bond_code/bond_issue.tap_issue_bond_short_name确认唯一一条&amp;quot;},&amp;quot;attribs&amp;quot;:{&amp;quot;0&amp;quot;:&amp;quot;*0+21&amp;quot;}},&amp;quot;apool&amp;quot;:{&amp;quot;numToAttrib&amp;quot;:{&amp;quot;0&amp;quot;:[&amp;quot;author&amp;quot;,&amp;quot;7444090915717136388&amp;quot;]},&amp;quot;nextNum&amp;quot;:1}},&amp;quot;type&amp;quot;:&amp;quot;text&amp;quot;,&amp;quot;referenceRecordMap&amp;quot;:{},&amp;quot;extra&amp;quot;:{&amp;quot;channel&amp;quot;:&amp;quot;saas&amp;quot;,&amp;quot;isEqualBlockSelection&amp;quot;:true,&amp;quot;pasteRandomId&amp;quot;:&amp;quot;4af0cce4-bc5f-42f0-941e-081d82b16ab8&amp;quot;,&amp;quot;mention_page_title&amp;quot;:{},&amp;quot;external_mention_url&amp;quot;:{}},&amp;quot;isKeepQuoteContainer&amp;quot;:false,&amp;quot;isFromCode&amp;quot;:false,&amp;quot;selection&amp;quot;:[{&amp;quot;id&amp;quot;:127,&amp;quot;type&amp;quot;:&amp;quot;text&amp;quot;,&amp;quot;selection&amp;quot;:{&amp;quot;start&amp;quot;:0,&amp;quot;end&amp;quot;:73},&amp;quot;recordId&amp;quot;:&amp;quot;JiKndklktoS3tnxEeXJc0E0Fnsc&amp;quot;}],&amp;quot;payloadMap&amp;quot;:{},&amp;quot;isCut&amp;quot;:false}&quot;&gt;&lt;/span&gt;&lt;/div&gt;" style="whiteSpace=wrap;html=1;shadow=0;strokeWidth=1;spacing=6;spacingTop=-4;" vertex="1" parent="WIyWlLk6GJQsqaUBKTNV-1">
          <mxGeometry x="349.2" y="639" width="227.63" height="83" as="geometry" />
        </mxCell>
        <mxCell id="AfqAmTp_dEWSscZW_7_J-47" value="" style="edgeStyle=orthogonalEdgeStyle;rounded=0;orthogonalLoop=1;jettySize=auto;html=1;" edge="1" parent="WIyWlLk6GJQsqaUBKTNV-1" source="AfqAmTp_dEWSscZW_7_J-51">
          <mxGeometry relative="1" as="geometry">
            <mxPoint x="290" y="360" as="targetPoint" />
          </mxGeometry>
        </mxCell>
        <mxCell id="AfqAmTp_dEWSscZW_7_J-48" value="！=4,6" style="edgeLabel;html=1;align=center;verticalAlign=middle;resizable=0;points=[];" vertex="1" connectable="0" parent="AfqAmTp_dEWSscZW_7_J-47">
          <mxGeometry x="0.0181" y="-1" relative="1" as="geometry">
            <mxPoint as="offset" />
          </mxGeometry>
        </mxCell>
        <mxCell id="AfqAmTp_dEWSscZW_7_J-49" value="" style="edgeStyle=orthogonalEdgeStyle;rounded=0;orthogonalLoop=1;jettySize=auto;html=1;" edge="1" parent="WIyWlLk6GJQsqaUBKTNV-1" source="AfqAmTp_dEWSscZW_7_J-51" target="AfqAmTp_dEWSscZW_7_J-33">
          <mxGeometry relative="1" as="geometry" />
        </mxCell>
        <mxCell id="AfqAmTp_dEWSscZW_7_J-50" value="=4,6" style="edgeLabel;html=1;align=center;verticalAlign=middle;resizable=0;points=[];" vertex="1" connectable="0" parent="AfqAmTp_dEWSscZW_7_J-49">
          <mxGeometry x="-0.2906" relative="1" as="geometry">
            <mxPoint as="offset" />
          </mxGeometry>
        </mxCell>
        <mxCell id="AfqAmTp_dEWSscZW_7_J-51" value="bond_issue.bid_type 的值" style="rhombus;whiteSpace=wrap;html=1;shadow=0;strokeWidth=1;spacing=6;spacingTop=-4;" vertex="1" parent="WIyWlLk6GJQsqaUBKTNV-1">
          <mxGeometry x="412.37" y="330" width="100" height="60" as="geometry" />
        </mxCell>
      </root>
    </mxGraphModel>
  </diagram>
</mxfile>
